<?xml version="1.0" encoding="UTF-8" standalone="no"?><!DOCTYPE svg PUBLIC "-//W3C//DTD SVG 1.1//EN" "http://www.w3.org/Graphics/SVG/1.1/DTD/svg11.dtd"><svg width="2778px" height="2778px" version="1.1" xmlns="http://www.w3.org/2000/svg" xmlns:xlink="http://www.w3.org/1999/xlink" xml:space="preserve" xmlns:serif="http://www.serif.com/" style="fill-rule:evenodd;clip-rule:evenodd;stroke-linejoin:round;stroke-miterlimit:2;"><g transform="matrix(1.38889,0,0,1.38889,0,0)"><rect id="Artboard1" x="0" y="0" width="2000" height="2000" style="fill:none;"/><g id="Artboard11" serif:id="Artboard1"><g transform="matrix(1,0,0,1,0.333333,-7.66667)"><g transform="matrix(0,-22.9023,-22.9023,0,1995.92,2003.92)"><circle cx="43.5" cy="43.5" r="43.5" style="fill:rgb(220,0,55);"/></g><g transform="matrix(22.9023,0,0,22.9023,63.415,1304.9)"><path d="M74.615,-25.174C76.007,-21.35 76.768,-17.22 76.768,-12.915C76.768,-8.611 76.007,-4.481 74.615,-0.657L79.424,1.094C81.016,-3.278 81.884,-7.995 81.884,-12.918C81.884,-17.84 81.016,-22.557 79.424,-26.929L74.615,-25.178L74.615,-25.174Z" style="fill:white;fill-rule:nonzero;"/></g><g transform="matrix(22.9023,0,0,22.9023,63.415,2640.6)"><path d="M3.83,-53.926C10.353,-39.966 24.519,-30.294 40.943,-30.294C57.367,-30.294 71.535,-39.966 78.056,-53.926L73.417,-56.09C67.709,-43.875 55.314,-35.412 40.943,-35.412C26.573,-35.412 14.177,-43.875 8.47,-56.09L3.83,-53.926Z" style="fill:white;fill-rule:nonzero;"/></g><g transform="matrix(22.9023,0,0,22.9023,63.415,1305.1)"><path d="M7.271,-25.183L2.46,-26.934C0.868,-22.562 0,-17.844 0,-12.922C0,-8 0.868,-3.282 2.46,1.09L7.271,-0.661C5.879,-4.485 5.118,-8.615 5.118,-12.92C5.118,-17.224 5.877,-21.355 7.271,-25.178L7.271,-25.183Z" style="fill:white;fill-rule:nonzero;"/></g><g transform="matrix(22.9023,0,0,22.9023,63.415,71.4145)"><path d="M78.056,23.632C71.533,9.672 57.367,0 40.943,0C24.519,0 10.351,9.672 3.83,23.632L8.47,25.796C14.177,13.581 26.573,5.118 40.943,5.118C55.314,5.118 67.711,13.581 73.417,25.796L78.056,23.632Z" style="fill:white;fill-rule:nonzero;"/></g><g transform="matrix(22.9023,0,0,22.9023,63.415,1196.7)"><path d="M33.778,-16.38C32.755,-16.38 31.657,-16.2 30.706,-15.995L30.706,-24.567L26.426,-24.102L26.426,-1.087C28.194,-0.528 30.489,-0.002 32.753,-0.002C37.901,-0.002 40.942,-1.74 40.942,-8.191C40.942,-14.642 37.904,-16.38 33.778,-16.38ZM33.095,-3.663C32.318,-3.663 31.637,-3.756 30.706,-3.974L30.706,-12.404C31.476,-12.58 32.24,-12.72 33.095,-12.72C35.42,-12.72 36.538,-11.665 36.538,-8.191C36.538,-4.718 35.422,-3.663 33.095,-3.663Z" style="fill:white;"/></g><g transform="matrix(22.9023,0,0,22.9023,63.415,1571.7)"><path d="M47.356,-27.512C47.356,-26.52 48.504,-26.488 50.334,-26.457L50.331,-26.459C53.62,-26.396 56.38,-25.807 56.38,-21.589C56.38,-18.24 54.675,-16.378 49.185,-16.378C46.921,-16.378 45.37,-16.689 43.726,-17.279L43.384,-20.815C44.657,-20.411 46.392,-20.039 48.844,-20.039C51.045,-20.039 52.069,-20.317 52.069,-21.62C52.069,-23.036 51.001,-23.049 48.944,-23.073L48.626,-23.077C45.12,-23.138 43.043,-23.884 43.043,-27.388C43.043,-30.892 45.029,-32.754 50.177,-32.754C51.386,-32.754 53.216,-32.537 54.86,-32.041L55.201,-28.504C53.931,-28.815 51.915,-29.093 50.488,-29.093C48.13,-29.093 47.356,-28.815 47.356,-27.512Z" style="fill:white;fill-rule:nonzero;"/></g><g transform="matrix(22.9023,0,0,22.9023,63.415,1571.7)"><path d="M16.599,-32.754C15.235,-32.754 13.403,-32.537 11.759,-32.041L11.418,-28.504C12.781,-28.815 14.798,-29.093 16.131,-29.093C18.365,-29.093 19.263,-28.906 19.263,-27.108L19.263,-26.612L16.285,-26.457C12.997,-26.272 10.237,-25.713 10.237,-21.587C10.237,-18.238 11.942,-16.376 17.09,-16.376C19.478,-16.376 21.773,-16.902 23.541,-17.461L23.541,-27.386C23.541,-30.89 21.588,-32.752 16.594,-32.752L16.599,-32.754ZM19.265,-20.161C18.706,-20.067 17.962,-19.943 17.188,-19.943C15.326,-19.943 14.552,-20.532 14.552,-21.805C14.552,-23.077 15.296,-23.356 16.847,-23.449L19.265,-23.604L19.265,-20.161Z" style="fill:white;"/></g><g transform="matrix(22.9023,0,0,22.9023,63.415,1571.7)"><path d="M59.863,-32.041C61.507,-32.537 63.339,-32.754 64.703,-32.754L64.698,-32.752C69.692,-32.752 71.645,-30.89 71.645,-27.386L71.645,-17.461C69.877,-16.902 67.582,-16.376 65.194,-16.376C60.046,-16.376 58.341,-18.238 58.341,-21.587C58.341,-25.807 61.101,-26.272 64.389,-26.457L67.367,-26.612L67.367,-27.108C67.367,-28.906 66.469,-29.093 64.235,-29.093C62.902,-29.093 60.885,-28.815 59.522,-28.504L59.863,-32.041ZM65.292,-19.943C66.066,-19.943 66.81,-20.067 67.369,-20.161L67.369,-23.604L64.951,-23.449C63.4,-23.356 62.656,-23.077 62.656,-21.805C62.656,-20.532 63.43,-19.943 65.292,-19.943Z" style="fill:white;"/></g></g></g></g></svg>