<?xml version="1.0" encoding="UTF-8"?>
<svg id="Layer_1" data-name="Layer 1" xmlns="http://www.w3.org/2000/svg" viewBox="0 0 2000 2000">
  <defs>
    <style>
      .cls-1 {
        fill: #950528;
      }

      .cls-2 {
        fill: #db0032;
      }

      .cls-3 {
        fill: #fc760f;
      }

      .cls-4 {
        fill: #fefbfb;
      }
    </style>
  </defs>
  <path class="cls-2" d="M1954.97,1008.01c-18.69-3.99-13.73,9.35-17.2,20.81-78.35,258.32-211.73,518.5-471.2,631.03-333.21,144.5-905.97,120.99-1222.33-60.41-47.54-27.26-88.18-65.19-137.35-89.3C-3.23,1251.98,20.33,913.33,239.3,718.51c276.36-245.88,932.43-290.05,1260.08-144.09,47.65,21.23,102.51,65.29,141.95,81.23,7.15,2.89,12.68,5.18,20.66,3.68,45.76-160.44-8.61-337.72-174.28-397.52,21.02-45.75,20.49-107.85,0-153.43,149.26,11.92,290.29,104.58,359.3,236.97,90.49,173.59,102.47,466.99,107.95,662.67ZM544.33,1058.4c-148.23,30.11-145.3,276.17,12.97,297.66,243.24,33.04,230.1-347.04-12.97-297.66ZM1374.22,1058.4c-146.71,29.8-147.66,275.78,12.96,297.67,240.59,32.8,231.35-347.3-12.96-297.67ZM892.91,1462.78c-63.39,14.22-33.73,88.88-13.12,128.75,55.69,107.73,171.93,112.86,232.65,7.1,25.32-44.09,55.24-128.97-18.59-137.47-34.64-3.99-170.5-5.2-200.94,1.62Z"/>
  <path class="cls-1" d="M1954.97,1008.01c7.63,272.39-6.06,546.11.44,818.67-384.07,112.62-812.64,210.24-1214.07,140.41-282.92-49.22-519.13-186.57-634.46-456.96,49.17,24.11,89.81,62.05,137.35,89.3,316.37,181.4,889.12,204.91,1222.33,60.41,259.47-112.52,392.86-372.71,471.2-631.03,3.47-11.45-1.49-24.79,17.2-20.81Z"/>
  <path class="cls-3" d="M1487.71,108.38c20.49,45.57,21.02,107.67,0,153.43-70.29,152.96-313.37,113.93-328.04-52.01-18.66-211.06,251.2-272.34,328.04-101.42Z"/>
  <path class="cls-4" d="M544.33,1058.4c243.06-49.37,256.21,330.7,12.97,297.66-158.27-21.5-161.19-267.56-12.97-297.66Z"/>
  <path class="cls-4" d="M1374.22,1058.4c244.31-49.63,253.54,330.47,12.96,297.67-160.61-21.9-159.67-267.87-12.96-297.67Z"/>
  <path class="cls-4" d="M892.91,1462.78c30.44-6.83,166.29-5.61,200.94-1.62,73.83,8.5,43.91,93.38,18.59,137.47-60.72,105.77-176.97,100.63-232.65-7.1-20.61-39.87-50.27-114.53,13.12-128.75Z"/>
</svg>